<?xml version="1.0" encoding="utf-8"?>
<!-- Generated by Mocodo 4.2.11 -->
<svg width="506" height="745" viewBox="0 0 506 745" xmlns="http://www.w3.org/2000/svg">
<rect x="0" y="0" width="506" height="745" fill="#ffffbf" stroke="none" stroke-width="0"/>

<!-- Association ETRE -->
<g>
	<line x1="193" y1="102" x2="63" y2="102" stroke="#74add1" stroke-width="2"/>
	<line x1="63" y1="271" x2="63" y2="102" stroke="#74add1" stroke-width="2"/>
	<g>
		<path d="M72 77 a14 14 90 0 1 14 14 V102 h-46 V91 a14 14 90 0 1 14 -14" fill="#abd9e9" stroke="#abd9e9" stroke-width="0"/>
		<path d="M86 102 v11 a14 14 90 0 1 -14 14 H54 a14 14 90 0 1 -14 -14 V102 H46" fill="#e0f3f8" stroke="#e0f3f8" stroke-width="0"/>
		<rect x="40" y="77" width="46" height="50" fill="none" rx="14" stroke="#74add1" stroke-width="2"/>
		<line x1="40" y1="102" x2="86" y2="102" stroke="#74add1" stroke-width="1"/>
		<text x="47" y="94.75" fill="#000000" font-family="Verdana" font-size="12">ETRE</text>
	</g>
	<text x="122" y="119" fill="#d73027" font-family="Verdana" font-size="12">1,1</text>
	<text x="68" y="212" fill="#d73027" font-family="Verdana" font-size="12">0,1</text>
</g>

<!-- Association DEMANDER -->
<g>
	<line x1="193" y1="102" x2="315" y2="102" stroke="#74add1" stroke-width="2"/>
	<line x1="445" y1="271" x2="315" y2="102" stroke="#74add1" stroke-width="2"/>
	<g>
		<path d="M343 77 a14 14 90 0 1 14 14 V102 h-84 V91 a14 14 90 0 1 14 -14" fill="#abd9e9" stroke="#abd9e9" stroke-width="0"/>
		<path d="M357 102 v11 a14 14 90 0 1 -14 14 H287 a14 14 90 0 1 -14 -14 V102 H84" fill="#e0f3f8" stroke="#e0f3f8" stroke-width="0"/>
		<rect x="273" y="77" width="84" height="50" fill="none" rx="14" stroke="#74add1" stroke-width="2"/>
		<line x1="273" y1="102" x2="357" y2="102" stroke="#74add1" stroke-width="1"/>
		<text x="280" y="94.75" fill="#000000" font-family="Verdana" font-size="12">DEMANDER</text>
	</g>
	<text x="243" y="119" fill="#d73027" font-family="Verdana" font-size="12">0,N</text>
	<text x="411.91" y="221" fill="#d73027" font-family="Verdana" font-size="12">1,1</text>
</g>

<!-- Association ACCUEILLIR -->
<g>
	<line x1="193" y1="102" x2="193" y2="271" stroke="#74add1" stroke-width="2"/>
	<line x1="193" y1="423" x2="193" y2="271" stroke="#74add1" stroke-width="2"/>
	<g>
		<path d="M223 246 a14 14 90 0 1 14 14 V271 h-88 V260 a14 14 90 0 1 14 -14" fill="#abd9e9" stroke="#abd9e9" stroke-width="0"/>
		<path d="M237 271 v11 a14 14 90 0 1 -14 14 H163 a14 14 90 0 1 -14 -14 V271 H88" fill="#e0f3f8" stroke="#e0f3f8" stroke-width="0"/>
		<rect x="149" y="246" width="88" height="50" fill="none" rx="14" stroke="#74add1" stroke-width="2"/>
		<line x1="149" y1="271" x2="237" y2="271" stroke="#74add1" stroke-width="1"/>
		<text x="156" y="263.75" fill="#000000" font-family="Verdana" font-size="12">ACCUEILLIR</text>
	</g>
	<text x="198" y="212" fill="#d73027" font-family="Verdana" font-size="12">0,N</text>
	<text x="167" y="313" fill="#d73027" font-family="Verdana" font-size="12">0,1</text>
</g>

<!-- Association CONCERNER -->
<g>
	<line x1="193" y1="423" x2="315" y2="271" stroke="#74add1" stroke-width="2"/>
	<line x1="445" y1="271" x2="315" y2="271" stroke="#74add1" stroke-width="2"/>
	<g>
		<path d="M347 246 a14 14 90 0 1 14 14 V271 h-92 V260 a14 14 90 0 1 14 -14" fill="#abd9e9" stroke="#abd9e9" stroke-width="0"/>
		<path d="M361 271 v11 a14 14 90 0 1 -14 14 H283 a14 14 90 0 1 -14 -14 V271 H92" fill="#e0f3f8" stroke="#e0f3f8" stroke-width="0"/>
		<rect x="269" y="246" width="92" height="50" fill="none" rx="14" stroke="#74add1" stroke-width="2"/>
		<line x1="269" y1="271" x2="361" y2="271" stroke="#74add1" stroke-width="1"/>
		<text x="277" y="263.75" fill="#000000" font-family="Verdana" font-size="12">CONCERNER</text>
	</g>
	<text x="242" y="379.2" fill="#d73027" font-family="Verdana" font-size="12">0,N</text>
	<text x="367" y="288" fill="#d73027" font-family="Verdana" font-size="12">1,1</text>
</g>

<!-- Association REPRESENTER -->
<g>
	<line x1="63" y1="271" x2="63" y2="423" stroke="#74add1" stroke-width="2"/>
	<line x1="315" y1="643" x2="63" y2="423" stroke="#74add1" stroke-width="2"/>
	<g>
		<path d="M100 398 a14 14 90 0 1 14 14 V423 h-102 V412 a14 14 90 0 1 14 -14" fill="#abd9e9" stroke="#abd9e9" stroke-width="0"/>
		<path d="M114 423 v11 a14 14 90 0 1 -14 14 H26 a14 14 90 0 1 -14 -14 V423 H102" fill="#e0f3f8" stroke="#e0f3f8" stroke-width="0"/>
		<rect x="12" y="398" width="102" height="50" fill="none" rx="14" stroke="#74add1" stroke-width="2"/>
		<line x1="12" y1="423" x2="114" y2="423" stroke="#74add1" stroke-width="1"/>
		<text x="19" y="415.75" fill="#000000" font-family="Verdana" font-size="12">REPRESENTER</text>
	</g>
	<text x="68" y="339" fill="#d73027" font-family="Verdana" font-size="12">0,1</text>
	<text x="232" y="603.84" fill="#d73027" font-family="Verdana" font-size="12">1,1</text>
</g>

<!-- Association POSSEDER -->
<g>
	<line x1="193" y1="423" x2="315" y2="423" stroke="#74add1" stroke-width="2"/>
	<line x1="315" y1="643" x2="315" y2="423" stroke="#74add1" stroke-width="2"/>
	<g>
		<path d="M342 398 a14 14 90 0 1 14 14 V423 h-82 V412 a14 14 90 0 1 14 -14" fill="#abd9e9" stroke="#abd9e9" stroke-width="0"/>
		<path d="M356 423 v11 a14 14 90 0 1 -14 14 H288 a14 14 90 0 1 -14 -14 V423 H82" fill="#e0f3f8" stroke="#e0f3f8" stroke-width="0"/>
		<rect x="274" y="398" width="82" height="50" fill="none" rx="14" stroke="#74add1" stroke-width="2"/>
		<line x1="274" y1="423" x2="356" y2="423" stroke="#74add1" stroke-width="1"/>
		<text x="282" y="415.75" fill="#000000" font-family="Verdana" font-size="12">POSSEDER</text>
	</g>
	<text x="242" y="440" fill="#d73027" font-family="Verdana" font-size="12">1,1</text>
	<text x="320" y="542" fill="#d73027" font-family="Verdana" font-size="12">0,N</text>
</g>

<!-- Association RECEVOIR -->
<g>
	<line x1="315" y1="643" x2="445" y2="423" stroke="#74add1" stroke-width="2"/>
	<line x1="445" y1="271" x2="445" y2="423" stroke="#74add1" stroke-width="2"/>
	<g>
		<path d="M470 398 a14 14 90 0 1 14 14 V423 h-78 V412 a14 14 90 0 1 14 -14" fill="#abd9e9" stroke="#abd9e9" stroke-width="0"/>
		<path d="M484 423 v11 a14 14 90 0 1 -14 14 H420 a14 14 90 0 1 -14 -14 V423 H78" fill="#e0f3f8" stroke="#e0f3f8" stroke-width="0"/>
		<rect x="406" y="398" width="78" height="50" fill="none" rx="14" stroke="#74add1" stroke-width="2"/>
		<line x1="406" y1="423" x2="484" y2="423" stroke="#74add1" stroke-width="1"/>
		<text x="413" y="415.75" fill="#000000" font-family="Verdana" font-size="12">RECEVOIR</text>
	</g>
	<text x="347.54" y="542" fill="#d73027" font-family="Verdana" font-size="12">0,N</text>
	<text x="450" y="330" fill="#d73027" font-family="Verdana" font-size="12">1,1</text>
</g>

<!-- Entity FAMILLE -->
<g>
	<g>
		<rect x="148" y="9" width="90" height="25" fill="#fdae61" stroke="none" stroke-width="0" opacity="1"/>
		<rect x="148" y="34" width="90" height="161" fill="#fee090" stroke="none" stroke-width="0" opacity="1"/>
		<rect x="148" y="9" width="90" height="186" fill="none" stroke="#f46d43" stroke-width="2" opacity="1"/>
		<line x1="148" y1="34" x2="238" y2="34" stroke="#f46d43" stroke-width="1"/>
	</g>
	<text x="167" y="26.75" fill="#000000" font-family="Verdana" font-size="12">FAMILLE</text>
	<text x="153" y="51.8" fill="#000000" font-family="Verdana" font-size="12">code_Famille</text>
	<line x1="153" y1="54" x2="233" y2="54" stroke="#000000" stroke-width="1"/>
	<text x="153" y="68.8" fill="#000000" font-family="Verdana" font-size="12">nom</text>
	<text x="153" y="85.8" fill="#000000" font-family="Verdana" font-size="12">adresse</text>
	<text x="153" y="102.8" fill="#000000" font-family="Verdana" font-size="12">code_postal</text>
	<text x="153" y="119.8" fill="#000000" font-family="Verdana" font-size="12">ville</text>
	<text x="153" y="136.8" fill="#000000" font-family="Verdana" font-size="12">département</text>
	<text x="153" y="153.8" fill="#000000" font-family="Verdana" font-size="12">téléphone</text>
	<text x="153" y="170.8" fill="#000000" font-family="Verdana" font-size="12">description</text>
	<text x="153" y="187.8" fill="#000000" font-family="Verdana" font-size="12">url_image</text>
</g>

<!-- Entity UTILISATEUR -->
<g>
	<g>
		<rect x="9" y="220" width="108" height="25" fill="#fdae61" stroke="none" stroke-width="0" opacity="1"/>
		<rect x="9" y="245" width="108" height="77" fill="#fee090" stroke="none" stroke-width="0" opacity="1"/>
		<rect x="9" y="220" width="108" height="102" fill="none" stroke="#f46d43" stroke-width="2" opacity="1"/>
		<line x1="9" y1="245" x2="117" y2="245" stroke="#f46d43" stroke-width="1"/>
	</g>
	<text x="22" y="237.75" fill="#000000" font-family="Verdana" font-size="12">UTILISATEUR</text>
	<text x="14" y="262.8" fill="#000000" font-family="Verdana" font-size="12">code_Utilisateur</text>
	<line x1="14" y1="265" x2="112" y2="265" stroke="#000000" stroke-width="1"/>
	<text x="14" y="279.8" fill="#000000" font-family="Verdana" font-size="12">email</text>
	<text x="14" y="296.8" fill="#000000" font-family="Verdana" font-size="12">mot_de_passe</text>
	<text x="14" y="313.8" fill="#000000" font-family="Verdana" font-size="12">role</text>
</g>

<!-- Entity DEMANDE -->
<g>
	<g>
		<rect x="393" y="229" width="104" height="25" fill="#fdae61" stroke="none" stroke-width="0" opacity="1"/>
		<rect x="393" y="254" width="104" height="59" fill="#fee090" stroke="none" stroke-width="0" opacity="1"/>
		<rect x="393" y="229" width="104" height="84" fill="none" stroke="#f46d43" stroke-width="2" opacity="1"/>
		<line x1="393" y1="254" x2="497" y2="254" stroke="#f46d43" stroke-width="1"/>
	</g>
	<text x="414" y="246.75" fill="#000000" font-family="Verdana" font-size="12">DEMANDE</text>
	<text x="398" y="271.8" fill="#000000" font-family="Verdana" font-size="12">code_Demande</text>
	<line x1="398" y1="274" x2="492" y2="274" stroke="#000000" stroke-width="1"/>
	<text x="398" y="288.8" fill="#000000" font-family="Verdana" font-size="12">statut</text>
</g>

<!-- Entity ANIMAL -->
<g>
	<g>
		<rect x="149" y="321" width="88" height="25" fill="#fdae61" stroke="none" stroke-width="0" opacity="1"/>
		<rect x="149" y="346" width="88" height="179" fill="#fee090" stroke="none" stroke-width="0" opacity="1"/>
		<rect x="149" y="321" width="88" height="204" fill="none" stroke="#f46d43" stroke-width="2" opacity="1"/>
		<line x1="149" y1="346" x2="237" y2="346" stroke="#f46d43" stroke-width="1"/>
	</g>
	<text x="169" y="338.75" fill="#000000" font-family="Verdana" font-size="12">ANIMAL</text>
	<text x="154" y="363.8" fill="#000000" font-family="Verdana" font-size="12">code_Animal</text>
	<line x1="154" y1="366" x2="232" y2="366" stroke="#000000" stroke-width="1"/>
	<text x="154" y="380.8" fill="#000000" font-family="Verdana" font-size="12">nom</text>
	<text x="154" y="397.8" fill="#000000" font-family="Verdana" font-size="12">genre</text>
	<text x="154" y="414.8" fill="#000000" font-family="Verdana" font-size="12">espèce</text>
	<text x="154" y="431.8" fill="#000000" font-family="Verdana" font-size="12">race</text>
	<text x="154" y="448.8" fill="#000000" font-family="Verdana" font-size="12">âge</text>
	<text x="154" y="465.8" fill="#000000" font-family="Verdana" font-size="12">taille</text>
	<text x="154" y="482.8" fill="#000000" font-family="Verdana" font-size="12">description</text>
	<text x="154" y="499.8" fill="#000000" font-family="Verdana" font-size="12">url_image</text>
	<text x="154" y="516.8" fill="#000000" font-family="Verdana" font-size="12">disponible</text>
</g>

<!-- Entity ASSOCIATION -->
<g>
	<g>
		<rect x="258" y="550" width="114" height="25" fill="#fdae61" stroke="none" stroke-width="0" opacity="1"/>
		<rect x="258" y="575" width="114" height="161" fill="#fee090" stroke="none" stroke-width="0" opacity="1"/>
		<rect x="258" y="550" width="114" height="186" fill="none" stroke="#f46d43" stroke-width="2" opacity="1"/>
		<line x1="258" y1="575" x2="372" y2="575" stroke="#f46d43" stroke-width="1"/>
	</g>
	<text x="271" y="567.75" fill="#000000" font-family="Verdana" font-size="12">ASSOCIATION</text>
	<text x="263" y="592.8" fill="#000000" font-family="Verdana" font-size="12">code_Association</text>
	<line x1="263" y1="595" x2="367" y2="595" stroke="#000000" stroke-width="1"/>
	<text x="263" y="609.8" fill="#000000" font-family="Verdana" font-size="12">nom</text>
	<text x="263" y="626.8" fill="#000000" font-family="Verdana" font-size="12">adresse</text>
	<text x="263" y="643.8" fill="#000000" font-family="Verdana" font-size="12">code_postal</text>
	<text x="263" y="660.8" fill="#000000" font-family="Verdana" font-size="12">ville</text>
	<text x="263" y="677.8" fill="#000000" font-family="Verdana" font-size="12">département</text>
	<text x="263" y="694.8" fill="#000000" font-family="Verdana" font-size="12">téléphone</text>
	<text x="263" y="711.8" fill="#000000" font-family="Verdana" font-size="12">description</text>
	<text x="263" y="728.8" fill="#000000" font-family="Verdana" font-size="12">url_image</text>
</g>
</svg>