<?xml version="1.0" encoding="utf-8"?>
<!-- Generated by Mocodo 4.2.11 -->
<svg width="582" height="670" viewBox="0 0 582 670" xmlns="http://www.w3.org/2000/svg">
<rect x="0" y="0" width="582" height="670" fill="#f7f7f7" stroke="none" stroke-width="0"/>

<!-- Association SITUER -->
<g>
	<line x1="194" y1="94" x2="68" y2="94" stroke="#d6604d" stroke-width="2"/>
	<line x1="68" y1="255" x2="68" y2="94" stroke="#d6604d" stroke-width="2"/>
	<g>
		<path d="M84 69 a14 14 90 0 1 14 14 V94 h-60 V83 a14 14 90 0 1 14 -14" fill="#f4a582" stroke="#f4a582" stroke-width="0"/>
		<path d="M98 94 v11 a14 14 90 0 1 -14 14 H52 a14 14 90 0 1 -14 -14 V94 H60" fill="#fddbc7" stroke="#fddbc7" stroke-width="0"/>
		<rect x="38" y="69" width="60" height="50" fill="none" rx="14" stroke="#d6604d" stroke-width="2"/>
		<line x1="38" y1="94" x2="98" y2="94" stroke="#d6604d" stroke-width="1"/>
		<text x="45" y="86.75" fill="#000000" font-family="Verdana" font-size="12">SITUER</text>
	</g>
	<text x="111" y="111" fill="#2166ac" font-family="Verdana" font-size="12">1,1</text>
	<text x="73" y="196" fill="#2166ac" font-family="Verdana" font-size="12">0,N</text>
</g>

<!-- Association APPARTENIR -->
<g>
	<line x1="442" y1="255" x2="329" y2="94" stroke="#d6604d" stroke-width="2"/>
	<line x1="194" y1="94" x2="329" y2="94" stroke="#d6604d" stroke-width="2"/>
	<g>
		<path d="M361 69 a14 14 90 0 1 14 14 V94 h-92 V83 a14 14 90 0 1 14 -14" fill="#f4a582" stroke="#f4a582" stroke-width="0"/>
		<path d="M375 94 v11 a14 14 90 0 1 -14 14 H297 a14 14 90 0 1 -14 -14 V94 H92" fill="#fddbc7" stroke="#fddbc7" stroke-width="0"/>
		<rect x="283" y="69" width="92" height="50" fill="none" rx="14" stroke="#d6604d" stroke-width="2"/>
		<line x1="283" y1="94" x2="375" y2="94" stroke="#d6604d" stroke-width="1"/>
		<text x="290" y="86.75" fill="#000000" font-family="Verdana" font-size="12">APPARTENIR</text>
	</g>
	<text x="371" y="203.96" fill="#2166ac" font-family="Verdana" font-size="12">0,N</text>
	<text x="256" y="111" fill="#2166ac" font-family="Verdana" font-size="12">1,1</text>
</g>

<!-- Association ETRE -->
<g>
	<line x1="442" y1="255" x2="442" y2="94" stroke="#d6604d" stroke-width="2"/>
	<line x1="535" y1="94" x2="442" y2="94" stroke="#d6604d" stroke-width="2"/>
	<g>
		<path d="M451 69 a14 14 90 0 1 14 14 V94 h-46 V83 a14 14 90 0 1 14 -14" fill="#f4a582" stroke="#f4a582" stroke-width="0"/>
		<path d="M465 94 v11 a14 14 90 0 1 -14 14 H433 a14 14 90 0 1 -14 -14 V94 H46" fill="#fddbc7" stroke="#fddbc7" stroke-width="0"/>
		<rect x="419" y="69" width="46" height="50" fill="none" rx="14" stroke="#d6604d" stroke-width="2"/>
		<line x1="419" y1="94" x2="465" y2="94" stroke="#d6604d" stroke-width="1"/>
		<text x="426" y="86.75" fill="#000000" font-family="Verdana" font-size="12">ETRE</text>
	</g>
	<text x="447" y="145" fill="#2166ac" font-family="Verdana" font-size="12">1,1</text>
	<text x="470" y="111" fill="#2166ac" font-family="Verdana" font-size="12">0,N</text>
</g>

<!-- Association DETENIR -->
<g>
	<line x1="194" y1="94" x2="194" y2="255" stroke="#d6604d" stroke-width="2"/>
	<line x1="329" y1="255" x2="194" y2="255" stroke="#d6604d" stroke-width="2"/>
	<g>
		<path d="M215 230 a14 14 90 0 1 14 14 V255 h-70 V244 a14 14 90 0 1 14 -14" fill="#f4a582" stroke="#f4a582" stroke-width="0"/>
		<path d="M229 255 v11 a14 14 90 0 1 -14 14 H173 a14 14 90 0 1 -14 -14 V255 H70" fill="#fddbc7" stroke="#fddbc7" stroke-width="0"/>
		<rect x="159" y="230" width="70" height="50" fill="none" rx="14" stroke="#d6604d" stroke-width="2"/>
		<line x1="159" y1="255" x2="229" y2="255" stroke="#d6604d" stroke-width="1"/>
		<text x="167" y="247.75" fill="#000000" font-family="Verdana" font-size="12">DETENIR</text>
	</g>
	<text x="199" y="196" fill="#2166ac" font-family="Verdana" font-size="12">1,1</text>
	<text x="265" y="272" fill="#2166ac" font-family="Verdana" font-size="12">0,N</text>
</g>

<!-- Association LOCALISER -->
<g>
	<line x1="329" y1="559" x2="194" y2="407" stroke="#d6604d" stroke-width="2"/>
	<line x1="68" y1="255" x2="194" y2="407" stroke="#d6604d" stroke-width="2"/>
	<g>
		<path d="M222 382 a14 14 90 0 1 14 14 V407 h-84 V396 a14 14 90 0 1 14 -14" fill="#f4a582" stroke="#f4a582" stroke-width="0"/>
		<path d="M236 407 v11 a14 14 90 0 1 -14 14 H166 a14 14 90 0 1 -14 -14 V407 H84" fill="#fddbc7" stroke="#fddbc7" stroke-width="0"/>
		<rect x="152" y="382" width="84" height="50" fill="none" rx="14" stroke="#d6604d" stroke-width="2"/>
		<line x1="152" y1="407" x2="236" y2="407" stroke="#d6604d" stroke-width="1"/>
		<text x="159" y="399.75" fill="#000000" font-family="Verdana" font-size="12">LOCALISER</text>
	</g>
	<text x="253" y="513.22" fill="#2166ac" font-family="Verdana" font-size="12">1,1</text>
	<text x="89.42" y="323" fill="#2166ac" font-family="Verdana" font-size="12">0,N</text>
</g>

<!-- Association AVOIR -->
<g>
	<line x1="329" y1="559" x2="329" y2="407" stroke="#d6604d" stroke-width="2"/>
	<line x1="329" y1="255" x2="329" y2="407" stroke="#d6604d" stroke-width="2"/>
	<g>
		<path d="M342 382 a14 14 90 0 1 14 14 V407 h-54 V396 a14 14 90 0 1 14 -14" fill="#f4a582" stroke="#f4a582" stroke-width="0"/>
		<path d="M356 407 v11 a14 14 90 0 1 -14 14 H316 a14 14 90 0 1 -14 -14 V407 H54" fill="#fddbc7" stroke="#fddbc7" stroke-width="0"/>
		<rect x="302" y="382" width="54" height="50" fill="none" rx="14" stroke="#d6604d" stroke-width="2"/>
		<line x1="302" y1="407" x2="356" y2="407" stroke="#d6604d" stroke-width="1"/>
		<text x="309" y="399.75" fill="#000000" font-family="Verdana" font-size="12">AVOIR</text>
	</g>
	<text x="334" y="449" fill="#2166ac" font-family="Verdana" font-size="12">1,1</text>
	<text x="334" y="306" fill="#2166ac" font-family="Verdana" font-size="12">0,N</text>
</g>

<!-- Association POSSEDER -->
<g>
	<line x1="329" y1="559" x2="442" y2="407" stroke="#d6604d" stroke-width="2"/>
	<line x1="442" y1="255" x2="442" y2="407" stroke="#d6604d" stroke-width="2"/>
	<g>
		<path d="M469 382 a14 14 90 0 1 14 14 V407 h-82 V396 a14 14 90 0 1 14 -14" fill="#f4a582" stroke="#f4a582" stroke-width="0"/>
		<path d="M483 407 v11 a14 14 90 0 1 -14 14 H415 a14 14 90 0 1 -14 -14 V407 H82" fill="#fddbc7" stroke="#fddbc7" stroke-width="0"/>
		<rect x="401" y="382" width="82" height="50" fill="none" rx="14" stroke="#d6604d" stroke-width="2"/>
		<line x1="401" y1="407" x2="483" y2="407" stroke="#d6604d" stroke-width="1"/>
		<text x="409" y="399.75" fill="#000000" font-family="Verdana" font-size="12">POSSEDER</text>
	</g>
	<text x="384" y="503.13" fill="#2166ac" font-family="Verdana" font-size="12">0,N</text>
	<text x="447" y="374" fill="#2166ac" font-family="Verdana" font-size="12">1,1</text>
</g>

<!-- Association DEMANDER -->
<g>
	<line x1="329" y1="559" x2="194" y2="559" stroke="#d6604d" stroke-width="2"/>
	<line x1="68" y1="559" x2="194" y2="559" stroke="#d6604d" stroke-width="2"/>
	<g>
		<path d="M222 534 a14 14 90 0 1 14 14 V559 h-84 V548 a14 14 90 0 1 14 -14" fill="#f4a582" stroke="#f4a582" stroke-width="0"/>
		<path d="M236 559 v11 a14 14 90 0 1 -14 14 H166 a14 14 90 0 1 -14 -14 V559 H84" fill="#fddbc7" stroke="#fddbc7" stroke-width="0"/>
		<rect x="152" y="534" width="84" height="50" fill="none" rx="14" stroke="#d6604d" stroke-width="2"/>
		<line x1="152" y1="559" x2="236" y2="559" stroke="#d6604d" stroke-width="1"/>
		<text x="159" y="551.75" fill="#000000" font-family="Verdana" font-size="12">DEMANDER</text>
	</g>
	<text x="252" y="576" fill="#2166ac" font-family="Verdana" font-size="12">0,N</text>
	<text x="125" y="576" fill="#2166ac" font-family="Verdana" font-size="12">1,1</text>
</g>

<!-- Entity ASSOCIATION -->
<g>
	<g>
		<rect x="137" y="9" width="114" height="25" fill="#92c5de" stroke="none" stroke-width="0" opacity="1"/>
		<rect x="137" y="34" width="114" height="145" fill="#d1e5f0" stroke="none" stroke-width="0" opacity="1"/>
		<rect x="137" y="9" width="114" height="170" fill="none" stroke="#4393c3" stroke-width="2" opacity="1"/>
		<line x1="137" y1="34" x2="251" y2="34" stroke="#4393c3" stroke-width="1"/>
	</g>
	<text x="150" y="26.75" fill="#000000" font-family="Verdana" font-size="12">ASSOCIATION</text>
	<text x="142" y="51.8" fill="#000000" font-family="Verdana" font-size="12">code_Association</text>
	<line x1="142" y1="54" x2="246" y2="54" stroke="#000000" stroke-width="1"/>
	<text x="142" y="68.8" fill="#000000" font-family="Verdana" font-size="12">nom</text>
	<text x="142" y="85.8" fill="#000000" font-family="Verdana" font-size="12">email</text>
	<text x="142" y="102.8" fill="#000000" font-family="Verdana" font-size="12">mot_de_passe</text>
	<text x="142" y="119.8" fill="#000000" font-family="Verdana" font-size="12">adresse</text>
	<text x="142" y="136.8" fill="#000000" font-family="Verdana" font-size="12">téléphone</text>
	<text x="142" y="153.8" fill="#000000" font-family="Verdana" font-size="12">description</text>
	<text x="142" y="170.8" fill="#000000" font-family="Verdana" font-size="12">url_image</text>
</g>

<!-- Entity TYPE -->
<g>
	<g>
		<rect x="497" y="60" width="76" height="25" fill="#92c5de" stroke="none" stroke-width="0" opacity="1"/>
		<rect x="497" y="85" width="76" height="43" fill="#d1e5f0" stroke="none" stroke-width="0" opacity="1"/>
		<rect x="497" y="60" width="76" height="68" fill="none" stroke="#4393c3" stroke-width="2" opacity="1"/>
		<line x1="497" y1="85" x2="573" y2="85" stroke="#4393c3" stroke-width="1"/>
	</g>
	<text x="520" y="77.75" fill="#000000" font-family="Verdana" font-size="12">TYPE</text>
	<text x="502" y="102.8" fill="#000000" font-family="Verdana" font-size="12">code_Type</text>
	<line x1="502" y1="105" x2="568" y2="105" stroke="#000000" stroke-width="1"/>
	<text x="502" y="119.8" fill="#000000" font-family="Verdana" font-size="12">nom</text>
</g>

<!-- Entity LOCALISATION -->
<g>
	<g>
		<rect x="9" y="204" width="118" height="25" fill="#92c5de" stroke="none" stroke-width="0" opacity="1"/>
		<rect x="9" y="229" width="118" height="77" fill="#d1e5f0" stroke="none" stroke-width="0" opacity="1"/>
		<rect x="9" y="204" width="118" height="102" fill="none" stroke="#4393c3" stroke-width="2" opacity="1"/>
		<line x1="9" y1="229" x2="127" y2="229" stroke="#4393c3" stroke-width="1"/>
	</g>
	<text x="22" y="221.75" fill="#000000" font-family="Verdana" font-size="12">LOCALISATION</text>
	<text x="14" y="246.8" fill="#000000" font-family="Verdana" font-size="12">code_Localisation</text>
	<line x1="14" y1="249" x2="121" y2="249" stroke="#000000" stroke-width="1"/>
	<text x="14" y="263.8" fill="#000000" font-family="Verdana" font-size="12">numéro</text>
	<text x="14" y="280.8" fill="#000000" font-family="Verdana" font-size="12">département</text>
</g>

<!-- Entity ROLE -->
<g>
	<g>
		<rect x="292" y="221" width="74" height="25" fill="#92c5de" stroke="none" stroke-width="0" opacity="1"/>
		<rect x="292" y="246" width="74" height="43" fill="#d1e5f0" stroke="none" stroke-width="0" opacity="1"/>
		<rect x="292" y="221" width="74" height="68" fill="none" stroke="#4393c3" stroke-width="2" opacity="1"/>
		<line x1="292" y1="246" x2="366" y2="246" stroke="#4393c3" stroke-width="1"/>
	</g>
	<text x="313" y="238.75" fill="#000000" font-family="Verdana" font-size="12">ROLE</text>
	<text x="297" y="263.8" fill="#000000" font-family="Verdana" font-size="12">code_Role</text>
	<line x1="297" y1="266" x2="360" y2="266" stroke="#000000" stroke-width="1"/>
	<text x="297" y="280.8" fill="#000000" font-family="Verdana" font-size="12">nom</text>
</g>

<!-- Entity ANIMAL -->
<g>
	<g>
		<rect x="398" y="153" width="88" height="25" fill="#92c5de" stroke="none" stroke-width="0" opacity="1"/>
		<rect x="398" y="178" width="88" height="179" fill="#d1e5f0" stroke="none" stroke-width="0" opacity="1"/>
		<rect x="398" y="153" width="88" height="204" fill="none" stroke="#4393c3" stroke-width="2" opacity="1"/>
		<line x1="398" y1="178" x2="486" y2="178" stroke="#4393c3" stroke-width="1"/>
	</g>
	<text x="418" y="170.75" fill="#000000" font-family="Verdana" font-size="12">ANIMAL</text>
	<text x="403" y="195.8" fill="#000000" font-family="Verdana" font-size="12">code_Animal</text>
	<line x1="403" y1="198" x2="481" y2="198" stroke="#000000" stroke-width="1"/>
	<text x="403" y="212.8" fill="#000000" font-family="Verdana" font-size="12">nom</text>
	<text x="403" y="229.8" fill="#000000" font-family="Verdana" font-size="12">genre</text>
	<text x="403" y="246.8" fill="#000000" font-family="Verdana" font-size="12">race</text>
	<text x="403" y="263.8" fill="#000000" font-family="Verdana" font-size="12">âge</text>
	<text x="403" y="280.8" fill="#000000" font-family="Verdana" font-size="12">taille</text>
	<text x="403" y="297.8" fill="#000000" font-family="Verdana" font-size="12">description</text>
	<text x="403" y="314.8" fill="#000000" font-family="Verdana" font-size="12">url_image</text>
	<text x="403" y="331.8" fill="#000000" font-family="Verdana" font-size="12">statut</text>
	<text x="403" y="348.8" fill="#000000" font-family="Verdana" font-size="12">disponibilité</text>
</g>

<!-- Entity DEMANDE -->
<g>
	<g>
		<rect x="16" y="525" width="104" height="25" fill="#92c5de" stroke="none" stroke-width="0" opacity="1"/>
		<rect x="16" y="550" width="104" height="43" fill="#d1e5f0" stroke="none" stroke-width="0" opacity="1"/>
		<rect x="16" y="525" width="104" height="68" fill="none" stroke="#4393c3" stroke-width="2" opacity="1"/>
		<line x1="16" y1="550" x2="120" y2="550" stroke="#4393c3" stroke-width="1"/>
	</g>
	<text x="37" y="542.75" fill="#000000" font-family="Verdana" font-size="12">DEMANDE</text>
	<text x="21" y="567.8" fill="#000000" font-family="Verdana" font-size="12">code_Demande</text>
	<line x1="21" y1="570" x2="115" y2="570" stroke="#000000" stroke-width="1"/>
	<text x="21" y="584.8" fill="#000000" font-family="Verdana" font-size="12">statut</text>
</g>

<!-- Entity FAMILLE -->
<g>
	<g>
		<rect x="279" y="457" width="100" height="25" fill="#92c5de" stroke="none" stroke-width="0" opacity="1"/>
		<rect x="279" y="482" width="100" height="179" fill="#d1e5f0" stroke="none" stroke-width="0" opacity="1"/>
		<rect x="279" y="457" width="100" height="204" fill="none" stroke="#4393c3" stroke-width="2" opacity="1"/>
		<line x1="279" y1="482" x2="379" y2="482" stroke="#4393c3" stroke-width="1"/>
	</g>
	<text x="303" y="474.75" fill="#000000" font-family="Verdana" font-size="12">FAMILLE</text>
	<text x="284" y="499.8" fill="#000000" font-family="Verdana" font-size="12">code_Famille</text>
	<line x1="284" y1="502" x2="364" y2="502" stroke="#000000" stroke-width="1"/>
	<text x="284" y="516.8" fill="#000000" font-family="Verdana" font-size="12">nom</text>
	<text x="284" y="533.8" fill="#000000" font-family="Verdana" font-size="12">prénom</text>
	<text x="284" y="550.8" fill="#000000" font-family="Verdana" font-size="12">email</text>
	<text x="284" y="567.8" fill="#000000" font-family="Verdana" font-size="12">mot_de_passe</text>
	<text x="284" y="584.8" fill="#000000" font-family="Verdana" font-size="12">adresse</text>
	<text x="284" y="601.8" fill="#000000" font-family="Verdana" font-size="12">téléphone</text>
	<text x="284" y="618.8" fill="#000000" font-family="Verdana" font-size="12">description</text>
	<text x="284" y="635.8" fill="#000000" font-family="Verdana" font-size="12">url_image</text>
	<text x="284" y="652.8" fill="#000000" font-family="Verdana" font-size="12">disponibilité</text>
</g>
</svg>