<?xml version="1.0" encoding="utf-8"?>
<!-- Generated by Mocodo 4.2.11 -->
<svg width="544" height="693" viewBox="0 0 544 693" xmlns="http://www.w3.org/2000/svg">
<rect x="0" y="0" width="544" height="693" fill="#ffffff" stroke="none" stroke-width="0"/>

<!-- Association DETENIR -->
<g>
	<line x1="170" y1="119" x2="46" y2="119" stroke="#d6604d" stroke-width="2"/>
	<line x1="46" y1="288" x2="46" y2="119" stroke="#d6604d" stroke-width="2"/>
	<g>
		<path d="M67 94 a14 14 90 0 1 14 14 V119 h-70 V108 a14 14 90 0 1 14 -14" fill="#f4a582" stroke="#f4a582" stroke-width="0"/>
		<path d="M81 119 v11 a14 14 90 0 1 -14 14 H25 a14 14 90 0 1 -14 -14 V119 H70" fill="#fddbc7" stroke="#fddbc7" stroke-width="0"/>
		<rect x="11" y="94" width="70" height="50" fill="none" rx="14" stroke="#d6604d" stroke-width="2"/>
		<line x1="11" y1="119" x2="81" y2="119" stroke="#d6604d" stroke-width="1"/>
		<text x="19" y="111.75" fill="#000000" font-family="Verdana" font-size="12">DETENIR</text>
	</g>
	<text x="87" y="136" fill="#4d4d4d" font-family="Verdana" font-size="12">1,1</text>
	<text x="51" y="246" fill="#4d4d4d" font-family="Verdana" font-size="12">0,N</text>
</g>

<!-- Association APPARTENIR -->
<g>
	<line x1="170" y1="119" x2="305" y2="119" stroke="#d6604d" stroke-width="2"/>
	<line x1="305" y1="288" x2="305" y2="119" stroke="#d6604d" stroke-width="2"/>
	<g>
		<path d="M337 94 a14 14 90 0 1 14 14 V119 h-92 V108 a14 14 90 0 1 14 -14" fill="#f4a582" stroke="#f4a582" stroke-width="0"/>
		<path d="M351 119 v11 a14 14 90 0 1 -14 14 H273 a14 14 90 0 1 -14 -14 V119 H92" fill="#fddbc7" stroke="#fddbc7" stroke-width="0"/>
		<rect x="259" y="94" width="92" height="50" fill="none" rx="14" stroke="#d6604d" stroke-width="2"/>
		<line x1="259" y1="119" x2="351" y2="119" stroke="#d6604d" stroke-width="1"/>
		<text x="266" y="111.75" fill="#000000" font-family="Verdana" font-size="12">APPARTENIR</text>
	</g>
	<text x="232" y="136" fill="#4d4d4d" font-family="Verdana" font-size="12">0,N</text>
	<text x="310" y="187" fill="#4d4d4d" font-family="Verdana" font-size="12">1,1</text>
</g>

<!-- Association POSSEDER -->
<g>
	<line x1="170" y1="465" x2="170" y2="288" stroke="#d6604d" stroke-width="2"/>
	<line x1="305" y1="288" x2="170" y2="288" stroke="#d6604d" stroke-width="2"/>
	<g>
		<path d="M197 263 a14 14 90 0 1 14 14 V288 h-82 V277 a14 14 90 0 1 14 -14" fill="#f4a582" stroke="#f4a582" stroke-width="0"/>
		<path d="M211 288 v11 a14 14 90 0 1 -14 14 H143 a14 14 90 0 1 -14 -14 V288 H82" fill="#fddbc7" stroke="#fddbc7" stroke-width="0"/>
		<rect x="129" y="263" width="82" height="50" fill="none" rx="14" stroke="#d6604d" stroke-width="2"/>
		<line x1="129" y1="288" x2="211" y2="288" stroke="#d6604d" stroke-width="1"/>
		<text x="137" y="280.75" fill="#000000" font-family="Verdana" font-size="12">POSSEDER</text>
	</g>
	<text x="175" y="330" fill="#4d4d4d" font-family="Verdana" font-size="12">0,N</text>
	<text x="235" y="305" fill="#4d4d4d" font-family="Verdana" font-size="12">0,1</text>
</g>

<!-- Association ETRE -->
<g>
	<line x1="305" y1="288" x2="404" y2="288" stroke="#d6604d" stroke-width="2"/>
	<line x1="497" y1="288" x2="404" y2="288" stroke="#d6604d" stroke-width="2"/>
	<g>
		<path d="M413 263 a14 14 90 0 1 14 14 V288 h-46 V277 a14 14 90 0 1 14 -14" fill="#f4a582" stroke="#f4a582" stroke-width="0"/>
		<path d="M427 288 v11 a14 14 90 0 1 -14 14 H395 a14 14 90 0 1 -14 -14 V288 H46" fill="#fddbc7" stroke="#fddbc7" stroke-width="0"/>
		<rect x="381" y="263" width="46" height="50" fill="none" rx="14" stroke="#d6604d" stroke-width="2"/>
		<line x1="381" y1="288" x2="427" y2="288" stroke="#d6604d" stroke-width="1"/>
		<text x="388" y="280.75" fill="#000000" font-family="Verdana" font-size="12">ETRE</text>
	</g>
	<text x="354" y="305" fill="#4d4d4d" font-family="Verdana" font-size="12">1,1</text>
	<text x="432" y="305" fill="#4d4d4d" font-family="Verdana" font-size="12">0,N</text>
</g>

<!-- Association AVOIR -->
<g>
	<line x1="170" y1="465" x2="46" y2="465" stroke="#d6604d" stroke-width="2"/>
	<line x1="46" y1="288" x2="46" y2="465" stroke="#d6604d" stroke-width="2"/>
	<g>
		<path d="M59 440 a14 14 90 0 1 14 14 V465 h-54 V454 a14 14 90 0 1 14 -14" fill="#f4a582" stroke="#f4a582" stroke-width="0"/>
		<path d="M73 465 v11 a14 14 90 0 1 -14 14 H33 a14 14 90 0 1 -14 -14 V465 H54" fill="#fddbc7" stroke="#fddbc7" stroke-width="0"/>
		<rect x="19" y="440" width="54" height="50" fill="none" rx="14" stroke="#d6604d" stroke-width="2"/>
		<line x1="19" y1="465" x2="73" y2="465" stroke="#d6604d" stroke-width="1"/>
		<text x="26" y="457.75" fill="#000000" font-family="Verdana" font-size="12">AVOIR</text>
	</g>
	<text x="94" y="482" fill="#4d4d4d" font-family="Verdana" font-size="12">1,1</text>
	<text x="51" y="339" fill="#4d4d4d" font-family="Verdana" font-size="12">0,N</text>
</g>

<!-- Association SOLLICITER -->
<g>
	<line x1="305" y1="288" x2="305" y2="465" stroke="#d6604d" stroke-width="2"/>
	<line x1="305" y1="642" x2="305" y2="465" stroke="#d6604d" stroke-width="2"/>
	<g>
		<path d="M335 440 a14 14 90 0 1 14 14 V465 h-88 V454 a14 14 90 0 1 14 -14" fill="#f4a582" stroke="#f4a582" stroke-width="0"/>
		<path d="M349 465 v11 a14 14 90 0 1 -14 14 H275 a14 14 90 0 1 -14 -14 V465 H88" fill="#fddbc7" stroke="#fddbc7" stroke-width="0"/>
		<rect x="261" y="440" width="88" height="50" fill="none" rx="14" stroke="#d6604d" stroke-width="2"/>
		<line x1="261" y1="465" x2="349" y2="465" stroke="#d6604d" stroke-width="1"/>
		<text x="268" y="457.75" fill="#000000" font-family="Verdana" font-size="12">SOLLICITER</text>
	</g>
	<text x="310" y="398" fill="#4d4d4d" font-family="Verdana" font-size="12">0,N</text>
	<text x="310" y="592" fill="#4d4d4d" font-family="Verdana" font-size="12">1,1</text>
</g>

<!-- Association DEMANDER -->
<g>
	<line x1="170" y1="465" x2="170" y2="642" stroke="#d6604d" stroke-width="2"/>
	<line x1="305" y1="642" x2="170" y2="642" stroke="#d6604d" stroke-width="2"/>
	<g>
		<path d="M198 617 a14 14 90 0 1 14 14 V642 h-84 V631 a14 14 90 0 1 14 -14" fill="#f4a582" stroke="#f4a582" stroke-width="0"/>
		<path d="M212 642 v11 a14 14 90 0 1 -14 14 H142 a14 14 90 0 1 -14 -14 V642 H84" fill="#fddbc7" stroke="#fddbc7" stroke-width="0"/>
		<rect x="128" y="617" width="84" height="50" fill="none" rx="14" stroke="#d6604d" stroke-width="2"/>
		<line x1="128" y1="642" x2="212" y2="642" stroke="#d6604d" stroke-width="1"/>
		<text x="135" y="634.75" fill="#000000" font-family="Verdana" font-size="12">DEMANDER</text>
	</g>
	<text x="175" y="609" fill="#4d4d4d" font-family="Verdana" font-size="12">0,N</text>
	<text x="227" y="659" fill="#4d4d4d" font-family="Verdana" font-size="12">1,1</text>
</g>

<!-- Entity ASSOCIATION -->
<g>
	<g>
		<rect x="113" y="9" width="114" height="25" fill="#bababa" stroke="none" stroke-width="0" opacity="1"/>
		<rect x="113" y="34" width="114" height="195" fill="#e0e0e0" stroke="none" stroke-width="0" opacity="1"/>
		<rect x="113" y="9" width="114" height="220" fill="none" stroke="#878787" stroke-width="2" opacity="1"/>
		<line x1="113" y1="34" x2="227" y2="34" stroke="#878787" stroke-width="1"/>
	</g>
	<text x="126" y="26.75" fill="#000000" font-family="Verdana" font-size="12">ASSOCIATION</text>
	<text x="118" y="51.8" fill="#000000" font-family="Verdana" font-size="12">code_Association</text>
	<line x1="118" y1="54" x2="222" y2="54" stroke="#000000" stroke-width="1"/>
	<text x="118" y="68.8" fill="#000000" font-family="Verdana" font-size="12">nom</text>
	<text x="118" y="85.8" fill="#000000" font-family="Verdana" font-size="12">email</text>
	<text x="118" y="102.8" fill="#000000" font-family="Verdana" font-size="12">mot_de_passe</text>
	<text x="118" y="119.8" fill="#000000" font-family="Verdana" font-size="12">adresse</text>
	<text x="118" y="136.8" fill="#000000" font-family="Verdana" font-size="12">code_postal</text>
	<text x="118" y="153.8" fill="#000000" font-family="Verdana" font-size="12">ville</text>
	<text x="118" y="170.8" fill="#000000" font-family="Verdana" font-size="12">département</text>
	<text x="118" y="187.8" fill="#000000" font-family="Verdana" font-size="12">téléphone</text>
	<text x="118" y="204.8" fill="#000000" font-family="Verdana" font-size="12">description</text>
	<text x="118" y="221.8" fill="#000000" font-family="Verdana" font-size="12">url_image</text>
</g>

<!-- Entity ROLE -->
<g>
	<g>
		<rect x="9" y="254" width="74" height="25" fill="#bababa" stroke="none" stroke-width="0" opacity="1"/>
		<rect x="9" y="279" width="74" height="43" fill="#e0e0e0" stroke="none" stroke-width="0" opacity="1"/>
		<rect x="9" y="254" width="74" height="68" fill="none" stroke="#878787" stroke-width="2" opacity="1"/>
		<line x1="9" y1="279" x2="83" y2="279" stroke="#878787" stroke-width="1"/>
	</g>
	<text x="30" y="271.75" fill="#000000" font-family="Verdana" font-size="12">ROLE</text>
	<text x="14" y="296.8" fill="#000000" font-family="Verdana" font-size="12">code_Role</text>
	<line x1="14" y1="299" x2="77" y2="299" stroke="#000000" stroke-width="1"/>
	<text x="14" y="313.8" fill="#000000" font-family="Verdana" font-size="12">nom</text>
</g>

<!-- Entity ANIMAL -->
<g>
	<g>
		<rect x="261" y="195" width="88" height="25" fill="#bababa" stroke="none" stroke-width="0" opacity="1"/>
		<rect x="261" y="220" width="88" height="161" fill="#e0e0e0" stroke="none" stroke-width="0" opacity="1"/>
		<rect x="261" y="195" width="88" height="186" fill="none" stroke="#878787" stroke-width="2" opacity="1"/>
		<line x1="261" y1="220" x2="349" y2="220" stroke="#878787" stroke-width="1"/>
	</g>
	<text x="281" y="212.75" fill="#000000" font-family="Verdana" font-size="12">ANIMAL</text>
	<text x="266" y="237.8" fill="#000000" font-family="Verdana" font-size="12">code_Animal</text>
	<line x1="266" y1="240" x2="344" y2="240" stroke="#000000" stroke-width="1"/>
	<text x="266" y="254.8" fill="#000000" font-family="Verdana" font-size="12">nom</text>
	<text x="266" y="271.8" fill="#000000" font-family="Verdana" font-size="12">genre</text>
	<text x="266" y="288.8" fill="#000000" font-family="Verdana" font-size="12">race</text>
	<text x="266" y="305.8" fill="#000000" font-family="Verdana" font-size="12">âge</text>
	<text x="266" y="322.8" fill="#000000" font-family="Verdana" font-size="12">taille</text>
	<text x="266" y="339.8" fill="#000000" font-family="Verdana" font-size="12">description</text>
	<text x="266" y="356.8" fill="#000000" font-family="Verdana" font-size="12">url_image</text>
	<text x="266" y="373.8" fill="#000000" font-family="Verdana" font-size="12">disponible</text>
</g>

<!-- Entity TYPE -->
<g>
	<g>
		<rect x="459" y="254" width="76" height="25" fill="#bababa" stroke="none" stroke-width="0" opacity="1"/>
		<rect x="459" y="279" width="76" height="43" fill="#e0e0e0" stroke="none" stroke-width="0" opacity="1"/>
		<rect x="459" y="254" width="76" height="68" fill="none" stroke="#878787" stroke-width="2" opacity="1"/>
		<line x1="459" y1="279" x2="535" y2="279" stroke="#878787" stroke-width="1"/>
	</g>
	<text x="482" y="271.75" fill="#000000" font-family="Verdana" font-size="12">TYPE</text>
	<text x="464" y="296.8" fill="#000000" font-family="Verdana" font-size="12">code_Type</text>
	<line x1="464" y1="299" x2="530" y2="299" stroke="#000000" stroke-width="1"/>
	<text x="464" y="313.8" fill="#000000" font-family="Verdana" font-size="12">nom</text>
</g>

<!-- Entity FAMILLE -->
<g>
	<g>
		<rect x="120" y="338" width="100" height="25" fill="#bababa" stroke="none" stroke-width="0" opacity="1"/>
		<rect x="120" y="363" width="100" height="229" fill="#e0e0e0" stroke="none" stroke-width="0" opacity="1"/>
		<rect x="120" y="338" width="100" height="254" fill="none" stroke="#878787" stroke-width="2" opacity="1"/>
		<line x1="120" y1="363" x2="220" y2="363" stroke="#878787" stroke-width="1"/>
	</g>
	<text x="144" y="355.75" fill="#000000" font-family="Verdana" font-size="12">FAMILLE</text>
	<text x="125" y="380.8" fill="#000000" font-family="Verdana" font-size="12">code_Famille</text>
	<line x1="125" y1="383" x2="205" y2="383" stroke="#000000" stroke-width="1"/>
	<text x="125" y="397.8" fill="#000000" font-family="Verdana" font-size="12">nom</text>
	<text x="125" y="414.8" fill="#000000" font-family="Verdana" font-size="12">prénom</text>
	<text x="125" y="431.8" fill="#000000" font-family="Verdana" font-size="12">email</text>
	<text x="125" y="448.8" fill="#000000" font-family="Verdana" font-size="12">mot_de_passe</text>
	<text x="125" y="465.8" fill="#000000" font-family="Verdana" font-size="12">adresse</text>
	<text x="125" y="482.8" fill="#000000" font-family="Verdana" font-size="12">code_postal</text>
	<text x="125" y="499.8" fill="#000000" font-family="Verdana" font-size="12">ville</text>
	<text x="125" y="516.8" fill="#000000" font-family="Verdana" font-size="12">département</text>
	<text x="125" y="533.8" fill="#000000" font-family="Verdana" font-size="12">téléphone</text>
	<text x="125" y="550.8" fill="#000000" font-family="Verdana" font-size="12">description</text>
	<text x="125" y="567.8" fill="#000000" font-family="Verdana" font-size="12">url_image</text>
	<text x="125" y="584.8" fill="#000000" font-family="Verdana" font-size="12">statut</text>
</g>

<!-- Entity DEMANDE -->
<g>
	<g>
		<rect x="253" y="600" width="104" height="25" fill="#bababa" stroke="none" stroke-width="0" opacity="1"/>
		<rect x="253" y="625" width="104" height="59" fill="#e0e0e0" stroke="none" stroke-width="0" opacity="1"/>
		<rect x="253" y="600" width="104" height="84" fill="none" stroke="#878787" stroke-width="2" opacity="1"/>
		<line x1="253" y1="625" x2="357" y2="625" stroke="#878787" stroke-width="1"/>
	</g>
	<text x="274" y="617.75" fill="#000000" font-family="Verdana" font-size="12">DEMANDE</text>
	<text x="258" y="642.8" fill="#000000" font-family="Verdana" font-size="12">code_Demande</text>
	<line x1="258" y1="645" x2="352" y2="645" stroke="#000000" stroke-width="1"/>
	<text x="258" y="659.8" fill="#000000" font-family="Verdana" font-size="12">statut</text>
</g>
</svg>