<?xml version="1.0" encoding="utf-8"?>
<!-- Generated by Mocodo 4.2.11 -->
<svg width="378" height="501" viewBox="0 0 378 501" xmlns="http://www.w3.org/2000/svg">
<rect x="0" y="0" width="378" height="501" fill="#ffffbf" stroke="none" stroke-width="0"/>

<!-- Association ACCUEILLIR -->
<g>
	<line x1="63" y1="365" x2="63" y2="111" stroke="#74add1" stroke-width="2"/>
	<line x1="191" y1="111" x2="63" y2="111" stroke="#74add1" stroke-width="2"/>
	<g>
		<path d="M93 86 a14 14 90 0 1 14 14 V111 h-88 V100 a14 14 90 0 1 14 -14" fill="#abd9e9" stroke="#abd9e9" stroke-width="0"/>
		<path d="M107 111 v11 a14 14 90 0 1 -14 14 H33 a14 14 90 0 1 -14 -14 V111 H88" fill="#e0f3f8" stroke="#e0f3f8" stroke-width="0"/>
		<rect x="19" y="86" width="88" height="50" fill="none" rx="14" stroke="#74add1" stroke-width="2"/>
		<line x1="19" y1="111" x2="107" y2="111" stroke="#74add1" stroke-width="1"/>
		<text x="26" y="103.75" fill="#000000" font-family="Verdana" font-size="12">ACCUEILLIR</text>
	</g>
	<text x="68" y="230" fill="#d73027" font-family="Verdana" font-size="12">0,N</text>
	<text x="120" y="128" fill="#d73027" font-family="Verdana" font-size="12">0,N</text>
</g>

<!-- Association CONCERNER -->
<g>
	<line x1="191" y1="111" x2="317" y2="111" stroke="#74add1" stroke-width="2"/>
	<line x1="317" y1="365" x2="317" y2="111" stroke="#74add1" stroke-width="2"/>
	<g>
		<path d="M349 86 a14 14 90 0 1 14 14 V111 h-92 V100 a14 14 90 0 1 14 -14" fill="#abd9e9" stroke="#abd9e9" stroke-width="0"/>
		<path d="M363 111 v11 a14 14 90 0 1 -14 14 H285 a14 14 90 0 1 -14 -14 V111 H92" fill="#e0f3f8" stroke="#e0f3f8" stroke-width="0"/>
		<rect x="271" y="86" width="92" height="50" fill="none" rx="14" stroke="#74add1" stroke-width="2"/>
		<line x1="271" y1="111" x2="363" y2="111" stroke="#74add1" stroke-width="1"/>
		<text x="279" y="103.75" fill="#000000" font-family="Verdana" font-size="12">CONCERNER</text>
	</g>
	<text x="240" y="128" fill="#d73027" font-family="Verdana" font-size="12">0,N</text>
	<text x="322" y="315" fill="#d73027" font-family="Verdana" font-size="12">1,1</text>
</g>

<!-- Association DEMANDER -->
<g>
	<line x1="63" y1="365" x2="191" y2="365" stroke="#74add1" stroke-width="2"/>
	<line x1="317" y1="365" x2="191" y2="365" stroke="#74add1" stroke-width="2"/>
	<g>
		<path d="M219 340 a14 14 90 0 1 14 14 V365 h-84 V354 a14 14 90 0 1 14 -14" fill="#abd9e9" stroke="#abd9e9" stroke-width="0"/>
		<path d="M233 365 v11 a14 14 90 0 1 -14 14 H163 a14 14 90 0 1 -14 -14 V365 H84" fill="#e0f3f8" stroke="#e0f3f8" stroke-width="0"/>
		<rect x="149" y="340" width="84" height="50" fill="none" rx="14" stroke="#74add1" stroke-width="2"/>
		<line x1="149" y1="365" x2="233" y2="365" stroke="#74add1" stroke-width="1"/>
		<text x="156" y="357.75" fill="#000000" font-family="Verdana" font-size="12">DEMANDER</text>
	</g>
	<text x="122" y="382" fill="#d73027" font-family="Verdana" font-size="12">0,N</text>
	<text x="239" y="382" fill="#d73027" font-family="Verdana" font-size="12">1,1</text>
</g>

<!-- Entity ANIMAL -->
<g>
	<g>
		<rect x="147" y="9" width="88" height="25" fill="#fdae61" stroke="none" stroke-width="0" opacity="1"/>
		<rect x="147" y="34" width="88" height="179" fill="#fee090" stroke="none" stroke-width="0" opacity="1"/>
		<rect x="147" y="9" width="88" height="204" fill="none" stroke="#f46d43" stroke-width="2" opacity="1"/>
		<line x1="147" y1="34" x2="235" y2="34" stroke="#f46d43" stroke-width="1"/>
	</g>
	<text x="167" y="26.75" fill="#000000" font-family="Verdana" font-size="12">ANIMAL</text>
	<text x="152" y="51.8" fill="#000000" font-family="Verdana" font-size="12">code_Animal</text>
	<line x1="152" y1="54" x2="230" y2="54" stroke="#000000" stroke-width="1"/>
	<text x="152" y="68.8" fill="#000000" font-family="Verdana" font-size="12">nom</text>
	<text x="152" y="85.8" fill="#000000" font-family="Verdana" font-size="12">genre</text>
	<text x="152" y="102.8" fill="#000000" font-family="Verdana" font-size="12">espèce</text>
	<text x="152" y="119.8" fill="#000000" font-family="Verdana" font-size="12">race</text>
	<text x="152" y="136.8" fill="#000000" font-family="Verdana" font-size="12">âge</text>
	<text x="152" y="153.8" fill="#000000" font-family="Verdana" font-size="12">taille</text>
	<text x="152" y="170.8" fill="#000000" font-family="Verdana" font-size="12">description</text>
	<text x="152" y="187.8" fill="#000000" font-family="Verdana" font-size="12">url_image</text>
	<text x="152" y="204.8" fill="#000000" font-family="Verdana" font-size="12">disponible</text>
</g>

<!-- Entity UTILISATEUR -->
<g>
	<g>
		<rect x="9" y="238" width="108" height="25" fill="#fdae61" stroke="none" stroke-width="0" opacity="1"/>
		<rect x="9" y="263" width="108" height="229" fill="#fee090" stroke="none" stroke-width="0" opacity="1"/>
		<rect x="9" y="238" width="108" height="254" fill="none" stroke="#f46d43" stroke-width="2" opacity="1"/>
		<line x1="9" y1="263" x2="117" y2="263" stroke="#f46d43" stroke-width="1"/>
	</g>
	<text x="22" y="255.75" fill="#000000" font-family="Verdana" font-size="12">UTILISATEUR</text>
	<text x="14" y="280.8" fill="#000000" font-family="Verdana" font-size="12">code_Utilisateur</text>
	<line x1="14" y1="283" x2="112" y2="283" stroke="#000000" stroke-width="1"/>
	<text x="14" y="297.8" fill="#000000" font-family="Verdana" font-size="12">nom</text>
	<text x="14" y="314.8" fill="#000000" font-family="Verdana" font-size="12">prénom</text>
	<text x="14" y="331.8" fill="#000000" font-family="Verdana" font-size="12">email</text>
	<text x="14" y="348.8" fill="#000000" font-family="Verdana" font-size="12">mot_de_passe</text>
	<text x="14" y="365.8" fill="#000000" font-family="Verdana" font-size="12">adresse</text>
	<text x="14" y="382.8" fill="#000000" font-family="Verdana" font-size="12">code_postal</text>
	<text x="14" y="399.8" fill="#000000" font-family="Verdana" font-size="12">ville</text>
	<text x="14" y="416.8" fill="#000000" font-family="Verdana" font-size="12">département</text>
	<text x="14" y="433.8" fill="#000000" font-family="Verdana" font-size="12">téléphone</text>
	<text x="14" y="450.8" fill="#000000" font-family="Verdana" font-size="12">description</text>
	<text x="14" y="467.8" fill="#000000" font-family="Verdana" font-size="12">url_image</text>
	<text x="14" y="484.8" fill="#000000" font-family="Verdana" font-size="12">role</text>
</g>

<!-- Entity DEMANDE -->
<g>
	<g>
		<rect x="265" y="323" width="104" height="25" fill="#fdae61" stroke="none" stroke-width="0" opacity="1"/>
		<rect x="265" y="348" width="104" height="59" fill="#fee090" stroke="none" stroke-width="0" opacity="1"/>
		<rect x="265" y="323" width="104" height="84" fill="none" stroke="#f46d43" stroke-width="2" opacity="1"/>
		<line x1="265" y1="348" x2="369" y2="348" stroke="#f46d43" stroke-width="1"/>
	</g>
	<text x="286" y="340.75" fill="#000000" font-family="Verdana" font-size="12">DEMANDE</text>
	<text x="270" y="365.8" fill="#000000" font-family="Verdana" font-size="12">code_Demande</text>
	<line x1="270" y1="368" x2="364" y2="368" stroke="#000000" stroke-width="1"/>
	<text x="270" y="382.8" fill="#000000" font-family="Verdana" font-size="12">statut</text>
</g>
</svg>